<mxfile host="app.diagrams.net" modified="2023-07-05T07:16:10.969Z" agent="Mozilla/5.0 (Macintosh; Intel Mac OS X 10_15_7) AppleWebKit/537.36 (KHTML, like Gecko) Chrome/114.0.0.0 Safari/537.36" etag="tUuzd8LqvBp0e4VF1hJw" version="21.5.2" type="github">
  <diagram name="第 1 页" id="f_KIuMrbU2nGaqMX8C9C">
    <mxGraphModel dx="681" dy="326" grid="1" gridSize="10" guides="1" tooltips="1" connect="1" arrows="1" fold="1" page="1" pageScale="1" pageWidth="827" pageHeight="1169" math="0" shadow="0">
      <root>
        <mxCell id="0" />
        <mxCell id="1" parent="0" />
        <mxCell id="zEnyXZQ2qtf-XZhW1Qae-5" style="edgeStyle=orthogonalEdgeStyle;rounded=0;orthogonalLoop=1;jettySize=auto;html=1;entryX=0.5;entryY=0;entryDx=0;entryDy=0;" edge="1" parent="1" source="zEnyXZQ2qtf-XZhW1Qae-1" target="zEnyXZQ2qtf-XZhW1Qae-3">
          <mxGeometry relative="1" as="geometry" />
        </mxCell>
        <mxCell id="zEnyXZQ2qtf-XZhW1Qae-1" value="" style="ellipse;html=1;shape=startState;fillColor=#000000;strokeColor=#ff0000;" vertex="1" parent="1">
          <mxGeometry x="350" y="60" width="30" height="30" as="geometry" />
        </mxCell>
        <mxCell id="zEnyXZQ2qtf-XZhW1Qae-4" style="edgeStyle=orthogonalEdgeStyle;rounded=0;orthogonalLoop=1;jettySize=auto;html=1;exitX=0.5;exitY=1;exitDx=0;exitDy=0;" edge="1" parent="1" source="zEnyXZQ2qtf-XZhW1Qae-3">
          <mxGeometry relative="1" as="geometry">
            <mxPoint x="365" y="260" as="targetPoint" />
          </mxGeometry>
        </mxCell>
        <mxCell id="zEnyXZQ2qtf-XZhW1Qae-3" value="拉取任务信息" style="rounded=1;whiteSpace=wrap;html=1;" vertex="1" parent="1">
          <mxGeometry x="305" y="150" width="120" height="60" as="geometry" />
        </mxCell>
        <mxCell id="zEnyXZQ2qtf-XZhW1Qae-6" value="解析任务配置" style="rounded=1;whiteSpace=wrap;html=1;" vertex="1" parent="1">
          <mxGeometry x="305" y="260" width="120" height="60" as="geometry" />
        </mxCell>
      </root>
    </mxGraphModel>
  </diagram>
</mxfile>
